<svg width="100" height="100" viewBox="0 0 100 100" fill="none" xmlns="http://www.w3.org/2000/svg">
  <!-- Orange G shape -->
  <path d="M50 0C22.386 0 0 22.386 0 50C0 77.614 22.386 100 50 100C77.614 100 100 77.614 100 50V40H60V60H80V50C80 66.569 66.569 80 50 80C33.431 80 20 66.569 20 50C20 33.431 33.431 20 50 20C66.569 20 80 33.431 80 50H100C100 22.386 77.614 0 50 0Z" fill="#FF6B35"/>
  
  <!-- Inner circle cutout for the G -->
  <circle cx="70" cy="70" r="15" fill="white"/>
  
  <!-- Rectangle to complete the G shape -->
  <rect x="50" y="40" width="50" height="20" fill="#FF6B35"/>
</svg>