<svg width="100" height="100" viewBox="0 0 100 100" fill="none" xmlns="http://www.w3.org/2000/svg">
  <!-- Orange background circle -->
  <circle cx="50" cy="50" r="50" fill="#FF6B35"/>
  
  <!-- White "G" shape -->
  <path d="M25 50C25 36.193 36.193 25 50 25H65C71.627 25 77 30.373 77 37C77 43.627 71.627 49 65 49H50V37H65V31H50C39.507 31 31 39.507 31 50C31 60.493 39.507 69 50 69H65C71.627 69 77 63.627 77 57V50H58V56H71V57C71 60.314 68.314 63 65 63H50C42.82 63 37 57.18 37 50C37 42.82 42.82 37 50 37H65C68.314 37 71 34.686 71 31V37C71 40.314 68.314 43 65 43H50C39.507 43 31 51.507 31 62V50Z" fill="white"/>
  
  <!-- Simplified G shape that matches your logo better -->
  <path d="M30 50C30 37.85 39.85 28 52 28H68C71.314 28 74 30.686 74 34C74 37.314 71.314 40 68 40H52C46.477 40 42 44.477 42 50C42 55.523 46.477 60 52 60H68C71.314 60 74 57.314 74 54V50H58V44H80V54C80 60.627 74.627 66 68 66H52C43.163 66 36 58.837 36 50C36 41.163 43.163 34 52 34H68C74.627 34 80 28.373 80 22C80 15.373 74.627 10 68 10H52C36.536 10 24 22.536 24 38V50C24 65.464 36.536 78 52 78H68V72H52C39.85 72 30 62.15 30 50Z" fill="white"/>
</svg>